HIERARCHY
ROOT Hips
{
	OFFSET 0.0000 0.0000 0.0000
	CHANNELS 6 Xposition Yposition Zposition Zrotation Xrotation Yrotation
	JOINT Ab
	{
		OFFSET -0.0000 8.1305 -0.0000
		CHANNELS 3 Zrotation Xrotation Yrotation
		JOINT Chest
		{
			OFFSET -0.0000 26.2902 -0.0000
			CHANNELS 3 Zrotation Xrotation Yrotation
			JOINT Neck
			{
				OFFSET -0.0000 26.2902 0.0000
				CHANNELS 3 Zrotation Xrotation Yrotation
				JOINT Head
				{
					OFFSET -0.0000 10.8167 0.0000
					CHANNELS 3 Zrotation Xrotation Yrotation
					End Site
					{
						OFFSET -0.0000 16.7167 0.0000
					}
				}
			}
			JOINT LeftCollar
			{
				OFFSET -0.0000 26.2902 0.0000
				CHANNELS 3 Zrotation Xrotation Yrotation
				JOINT LeftShoulder
				{
					OFFSET 19.6667 -0.0000 0.0000
					CHANNELS 3 Zrotation Xrotation Yrotation
					JOINT LeftElbow
					{
						OFFSET 27.2190 0.0000 0.0000
						CHANNELS 3 Zrotation Xrotation Yrotation
						JOINT LeftWrist
						{
							OFFSET 30.7431 0.0000 0.0000
							CHANNELS 3 Zrotation Xrotation Yrotation
							End Site
							{
								OFFSET 0.0000 -14.7500 0.0000
							}
						}
					}
				}
			}
			JOINT RightCollar
			{
				OFFSET -0.0000 26.2902 0.0000
				CHANNELS 3 Zrotation Xrotation Yrotation
				JOINT RightShoulder
				{
					OFFSET -19.6667 0.0000 0.0000
					CHANNELS 3 Zrotation Xrotation Yrotation
					JOINT RightElbow
					{
						OFFSET -27.2190 0.0000 0.0000
						CHANNELS 3 Zrotation Xrotation Yrotation
						JOINT RightWrist
						{
							OFFSET -30.7431 0.0000 0.0000
							CHANNELS 3 Zrotation Xrotation Yrotation
							End Site
							{
								OFFSET -0.0000 -14.7500 0.0000
							}
						}
					}
				}
			}
		}
	}
	JOINT LeftHip
	{
		OFFSET 11.8000 0.0000 0.0000
		CHANNELS 3 Zrotation Xrotation Yrotation
		JOINT LeftKnee
		{
			OFFSET -0.0000 -39.7832 0.0000
			CHANNELS 3 Zrotation Xrotation Yrotation
			JOINT LeftAnkle
			{
				OFFSET -0.0000 -41.7317 0.0000
				CHANNELS 3 Zrotation Xrotation Yrotation
				End Site
				{
					OFFSET -0.0000 -4.9167 16.7167
				}
			}
		}
	}
	JOINT RightHip
	{
		OFFSET -11.8000 0.0000 0.0000
		CHANNELS 3 Zrotation Xrotation Yrotation
		JOINT RightKnee
		{
			OFFSET -0.0000 -39.7832 0.0000
			CHANNELS 3 Zrotation Xrotation Yrotation
			JOINT RightAnkle
			{
				OFFSET -0.0000 -41.7317 0.0000
				CHANNELS 3 Zrotation Xrotation Yrotation
				End Site
				{
					OFFSET -0.0000 -4.9167 16.7167
				}
			}
		}
	}
}
MOTION
Frames: 9
Frame Time: 0.010000
-2.0595 84.9080 67.7382 357.2040 350.0659 174.1919 358.0368 348.9478 4.0398 1.7965 9.9909 4.0693 352.2624 344.2570 359.1639 359.8826 8.0999 0.2379 335.6934 357.2909 12.7143 316.8746 37.5675 8.6569 358.0989 0.4064 323.0297 84.7810 356.8593 330.4292 27.5810 356.1735 344.4190 20.7501 51.1070 28.5667 328.6558 340.2925 64.8196 260.5545 352.9940 353.3612 351.7658 323.8602 359.5435 356.4018 27.2317 359.2253 1.4895 352.6846 23.9858 0.0340 18.2651 3.2790 5.3234 20.1942 16.4818 4.8005 332.9588 331.7053 
-2.0012 84.8878 66.1589 356.5354 350.0697 174.5892 357.0595 348.7620 3.7930 1.7217 10.1997 3.9254 352.5169 343.8105 359.0858 359.7851 8.1057 0.1561 335.3507 357.1809 12.9749 317.5087 38.2980 7.2307 358.7953 0.1638 322.8658 84.2164 356.8908 331.2565 28.0275 356.0336 344.1666 21.9357 50.3618 26.8575 329.9629 341.5857 64.0722 260.9175 353.0224 354.2597 350.8056 323.5733 357.0931 355.2932 29.4258 0.6291 2.1801 352.4562 24.2287 359.2921 17.2756 2.5812 5.3944 23.6021 16.4140 6.5299 334.1795 332.6833 
-1.9288 84.8942 64.6116 356.0142 350.1813 175.1051 356.3266 348.7093 3.4659 1.5242 10.5281 3.6800 352.6778 343.2641 359.0105 359.7911 8.1779 0.0991 335.1643 357.1196 13.0487 317.9023 38.8803 5.8273 359.4445 359.9447 322.7019 84.5074 356.6809 331.6527 28.3010 355.9932 344.2015 24.2893 49.6184 24.0674 331.1932 342.6487 63.3288 261.3682 352.8388 355.6599 350.0121 323.6093 355.8056 354.6090 31.1903 1.3538 3.1099 352.5412 23.7757 358.6745 16.1325 1.6554 5.4553 27.3573 17.0232 8.0837 335.8741 332.8790 
-1.9028 84.9217 63.0635 355.5392 350.3700 175.4954 355.8397 348.7842 3.2765 1.1432 10.7596 3.5724 352.7338 342.9378 358.9933 359.8103 8.1621 0.0990 335.1596 357.0968 13.1789 317.9506 39.6422 4.4907 0.4138 359.5522 322.4606 84.3938 356.6679 332.4743 28.5808 355.9316 344.3378 26.3404 48.9918 21.4925 332.3485 343.6817 62.2224 262.0712 352.8586 357.0848 349.2375 324.1539 355.3194 354.4531 32.3032 1.5841 3.7459 352.4632 23.9083 357.8103 14.8669 1.1017 6.0537 31.1480 16.4749 9.7229 338.3231 333.5519 
-1.8732 84.9507 61.5190 355.2279 350.7014 175.8845 355.6175 349.0576 3.1118 0.6316 10.8892 3.4660 352.9325 342.7560 359.0107 359.6670 8.1972 0.1052 335.2885 357.0923 13.1733 317.8878 40.5606 3.2772 1.5645 359.0992 322.0742 84.3366 356.5667 333.4410 28.8542 355.9264 344.5397 28.5507 48.4077 18.6586 333.4359 344.6641 61.0491 262.5739 353.0557 358.3772 348.6472 325.2020 355.2702 354.5340 32.9388 1.4143 4.7117 352.1738 23.9436 356.9982 13.5797 0.4706 6.8060 35.0142 15.5440 11.2964 341.1133 334.2855 
-1.8493 84.9984 59.9721 355.0320 351.1120 176.1933 355.5849 349.4449 3.0036 0.0795 10.9070 3.3991 353.1067 342.7922 359.0581 359.5815 8.2327 0.1351 335.5265 357.1425 13.1784 317.6532 41.5576 2.1127 2.7303 358.6497 321.6132 84.5978 356.6293 334.7905 29.0600 355.9581 344.8095 30.7682 47.8098 15.7447 334.5690 345.6860 59.7774 262.9572 353.0926 359.5494 348.2106 326.5427 355.7179 354.9479 33.2758 0.8489 5.5544 351.6566 23.7738 356.2148 12.2453 0.2920 7.9262 38.9035 14.1550 11.3241 344.8734 335.0771 
-1.8104 85.0480 58.4326 354.8752 351.5690 176.3430 355.5503 349.9413 2.9771 359.6320 10.7331 3.4020 353.2672 343.0221 359.1325 359.4880 8.3017 0.1816 335.7131 357.1514 13.3499 317.6222 42.7900 0.7840 3.9031 358.2117 321.1081 85.1873 356.6029 336.4376 29.2080 356.0186 345.1464 32.9250 47.3555 12.8284 335.5106 346.5354 58.2171 263.7886 353.2873 1.1035 347.9749 328.1242 356.4481 355.3710 33.2492 0.2324 6.2054 351.1393 23.4982 355.4523 10.7695 0.0919 9.0423 42.9714 13.0457 9.8079 348.4640 335.3589 
-1.7548 85.1015 56.9186 354.7968 351.9969 176.4606 355.6033 350.4397 2.9200 359.1588 10.5334 3.3633 353.5787 343.2577 359.2287 359.3213 8.4191 0.2277 336.0363 357.1612 13.5416 317.5007 44.2111 359.3589 5.3435 357.6149 320.5792 85.5359 356.3826 338.0736 29.2575 356.0839 345.2757 34.8866 47.0999 10.4688 336.2691 347.3182 56.2742 264.6382 353.7728 2.8397 347.8556 329.6968 357.5555 356.0293 33.1955 359.1928 6.5908 350.4896 23.3188 354.7096 9.1894 0.1316 10.6274 46.8583 12.3102 8.0616 351.3042 334.7669 
-1.6917 85.1728 55.4214 354.7506 352.3706 176.5450 355.6521 350.9117 2.8480 358.7695 10.2877 3.3019 353.7727 343.5595 359.3196 359.3763 8.4879 0.2700 336.3604 357.1710 13.7146 317.3725 45.5587 357.9952 6.7578 357.0383 319.8810 86.2536 356.1226 339.6129 29.2101 356.1375 345.3426 36.8311 46.8101 8.2748 336.9995 348.1618 54.2127 265.1927 354.1755 4.2529 347.7807 331.2182 358.7294 356.7407 33.0900 358.1084 6.7953 349.7723 23.1998 354.0482 7.5135 0.3801 12.5446 50.4640 11.5139 6.8283 352.5475 333.8690 
